HIERARCHY
ROOT Hips
{
	OFFSET 0.00000 0.00000 0.00000
	CHANNELS 6 Xposition Yposition Zposition Zrotation Yrotation Xrotation 
	JOINT LHipJoint
	{
		OFFSET 0 0 0
		CHANNELS 3 Zrotation Yrotation Xrotation
		JOINT LeftHip
		{
			OFFSET 1.75344 -1.53157 0.77399
			CHANNELS 3 Zrotation Yrotation Xrotation
			JOINT LeftKnee
			{
				OFFSET 2.25415 -6.19323 0.00000
				CHANNELS 3 Zrotation Yrotation Xrotation
				JOINT LeftAnkle
				{
					OFFSET 2.30342 -6.32861 0.00000
					CHANNELS 3 Zrotation Yrotation Xrotation
					JOINT LeftToe
					{
						OFFSET 0.10958 -0.30108 1.49206
						CHANNELS 3 Zrotation Yrotation Xrotation
						End Site
						{
							OFFSET 0.00000 -0.00000 0.77783
						}
					}
				}
			}
		}
	}
	JOINT RHipJoint
	{
		OFFSET 0 0 0
		CHANNELS 3 Zrotation Yrotation Xrotation
		JOINT RightHip
		{
			OFFSET -1.81912 -1.53156 0.77399
			CHANNELS 3 Zrotation Yrotation Xrotation
			JOINT RightKnee
			{
				OFFSET -2.22882 -6.12365 0.00000
				CHANNELS 3 Zrotation Yrotation Xrotation
				JOINT RightAnkle
				{
					OFFSET -2.21943 -6.09785 0.00000
					CHANNELS 3 Zrotation Yrotation Xrotation
					JOINT RightToe
					{
						OFFSET -0.18931 -0.52012 1.59379
						CHANNELS 3 Zrotation Yrotation Xrotation
						End Site
						{
							OFFSET -0.00000 -0.00000 0.84686
						}
					}
				}
			}
		}
	}
	JOINT lowerback
	{
		OFFSET 0 0 0
		CHANNELS 3 Zrotation Yrotation Xrotation
		JOINT Chest
		{
			OFFSET -0.00200 1.66634 -0.14248
			CHANNELS 3 Zrotation Yrotation Xrotation
			JOINT Chest2
			{
				OFFSET -0.00875 1.64542 0.09514
				CHANNELS 3 Zrotation Yrotation Xrotation
				JOINT lowerneck
				{
					OFFSET 0 0 0
					CHANNELS 3 Zrotation Yrotation Xrotation
					JOINT Neck
					{
						OFFSET 0.02257 1.59605 0.00839
						CHANNELS 3 Zrotation Yrotation Xrotation
						JOINT Head
						{
							OFFSET -0.10214 1.57530 -0.23335
							CHANNELS 3 Zrotation Yrotation Xrotation
							End Site
							{
								OFFSET -0.03588 1.60717 -0.08062
							}
						}
					}
				}
				JOINT LeftCollar
				{
					OFFSET 0 0 0
					CHANNELS 3 Zrotation Yrotation Xrotation
					JOINT LeftShoulder
					{
						OFFSET 2.54983 1.10186 0.40078
CHANNELS 3 Zrotation Xrotation Yrotation
						JOINT LeftElbow
						{
OFFSET 0 -4.288400 0.000000
CHANNELS 3 Zrotation Xrotation Yrotation
							JOINT LeftWrist
							{
OFFSET 0 -3.065520 -0.000000
CHANNELS 3 Zrotation Xrotation Yrotation
								JOINT lhand
								{
									OFFSET 0 0 0
CHANNELS 3 Zrotation Xrotation Yrotation
									JOINT LFingers
									{
OFFSET 0 -0.753040 0.000000
CHANNELS 3 Zrotation Xrotation Yrotation
										End Site
										{
OFFSET 0 -0.607120 0.000000
										}
									}
								}
								JOINT LThumb
								{
OFFSET 0 0.000000 0.000000
CHANNELS 3 Zrotation Xrotation Yrotation
									End Site
									{
OFFSET 0 -0.616390 0.616390
									}
								}
							}
						}
					}
				}
				JOINT RightCollar
				{
					OFFSET 0 0 0
					CHANNELS 3 Zrotation Yrotation Xrotation
					JOINT RightShoulder
					{
						OFFSET -2.60909 1.35448 0.21802
CHANNELS 3 Zrotation Xrotation Yrotation
						JOINT RightElbow
						{
OFFSET 0 -4.521720 -0.000000
CHANNELS 3 Zrotation Xrotation Yrotation
							JOINT RightWrist
							{
OFFSET 0 -2.891400 0.000000
CHANNELS 3 Zrotation Xrotation Yrotation
								JOINT rhand
								{
									OFFSET 0 0 0
CHANNELS 3 Zrotation Xrotation Yrotation
									JOINT RFingers
									{
OFFSET 0 -0.680540 0.000000
CHANNELS 3 Zrotation Xrotation Yrotation
										End Site
										{
OFFSET 0 -0.548670 0.000000
										}
									}
								}
								JOINT RThumb
								{
OFFSET 0 0.000000 0.000000
CHANNELS 3 Zrotation Xrotation Yrotation
									End Site
									{
OFFSET 0 -0.557050 0.557050
									}
								}
							}
						}
					}
				}
			}
		}
	}
}
MOTION
Frames: 5
Frame Time: 0.008333333333333333
9.682200 14.578300 -15.021400 1.792300 -3.989100 1.101500 0.000000 0.000000 0.000000 -15.903800 -6.023300 -24.686100 7.850500 16.008200 52.022300 2.425000 -12.470200 -28.122800 1.552200 -7.863300 -22.299600 0.000000 0.000000 0.000000 15.800100 5.926900 -23.128600 -8.094500 -16.188300 52.902200 -2.408800 -5.799000 -31.816500 -0.891200 6.017200 -16.834300 0.031500 0.862500 11.804100 -0.630500 1.097800 -4.228900 -0.935400 0.492900 -11.224600 4.757800 1.412900 -5.651900 -8.454500 2.856700 18.112200 -3.306100 1.040300 6.598000 0.000000 -0.000000 0.000000 54.330300 -39.323500 -19.473400 52.926400 -54.109700 28.528500 59.860200 -24.624500 37.574200 0.000000 0.000000 0.000000 -7.125000 0.000000 0.000000 12.595000 -25.821500 17.106100 0.000000 -0.000000 0.000000 -49.693100 -41.152700 21.821600 -55.987000 -55.142100 -31.024300 -42.982100 58.253800 42.076300 0.000000 0.000000 0.000000 7.125000 0.000000 -0.000000 -16.277900 80.619300 13.450200
9.682268 14.577714 -15.022482 1.800616 -3.979927 1.111011 0.000000 0.000000 0.000000 -15.911868 -6.038693 -24.696400 7.850139 16.007930 52.020993 2.425744 -12.475812 -28.127465 1.544627 -7.844932 -22.244090 0.000000 0.000000 0.000000 15.787299 5.923677 -23.154022 -8.099909 -16.192222 52.921582 -2.407538 -5.794560 -31.806786 -0.887774 6.005864 -16.801440 0.022462 0.860787 11.805227 -0.631311 1.093901 -4.230049 -0.930374 0.491638 -11.226764 4.754374 1.410466 -5.662628 -8.453125 2.853522 18.117271 -3.305356 1.038317 6.601245 0.000000 0.000000 0.000000 54.325049 -39.332154 -19.453342 52.909564 -54.103637 28.514842 59.847624 -24.597500 37.585694 0.000000 0.000000 0.000000 -7.125000 0.000000 0.000000 12.583979 -25.824317 17.090910 0.000000 0.000000 0.000000 -49.690125 -41.160318 21.814929 -55.975033 -55.138314 -31.014496 -42.880118 58.150803 42.033095 0.000000 0.000000 0.000000 7.125000 0.000000 0.000000 -15.969834 80.540824 13.170982
9.682335 14.577128 -15.023564 1.808933 -3.970754 1.120522 0.000000 0.000000 0.000000 -15.919937 -6.054086 -24.706699 7.849779 16.007659 52.019686 2.426487 -12.481424 -28.132131 1.537055 -7.826564 -22.188580 0.000000 0.000000 0.000000 15.774497 5.920454 -23.179445 -8.105318 -16.196143 52.940965 -2.406276 -5.790120 -31.797073 -0.884349 5.994527 -16.768580 0.013425 0.859074 11.806354 -0.632123 1.090002 -4.231199 -0.925348 0.490376 -11.228927 4.750949 1.408032 -5.673356 -8.451750 2.850344 18.122342 -3.304613 1.036333 6.604491 0.000000 0.000000 0.000000 54.319797 -39.340809 -19.433283 52.892729 -54.097575 28.501184 59.835048 -24.570500 37.597188 0.000000 0.000000 0.000000 -7.125000 0.000000 0.000000 12.572958 -25.827134 17.075719 0.000000 0.000000 0.000000 -49.687150 -41.167935 21.808258 -55.963065 -55.134527 -31.004692 -42.778135 58.047807 41.989891 0.000000 0.000000 0.000000 7.125000 0.000000 0.000000 -15.661768 80.462348 12.891764
9.682403 14.576542 -15.024645 1.817249 -3.961582 1.130033 0.000000 0.000000 0.000000 -15.928005 -6.069479 -24.716999 7.849418 16.007389 52.018378 2.427231 -12.487036 -28.136796 1.529482 -7.808196 -22.133070 0.000000 0.000000 0.000000 15.761696 5.917231 -23.204867 -8.110727 -16.200065 52.960347 -2.405014 -5.785680 -31.787359 -0.880923 5.983191 -16.735721 0.004387 0.857361 11.807481 -0.632934 1.086103 -4.232348 -0.920322 0.489114 -11.231091 4.747523 1.405598 -5.684084 -8.450376 2.847167 18.127413 -3.303869 1.034350 6.607736 0.000000 0.000000 0.000000 54.314546 -39.349463 -19.413225 52.875893 -54.091512 28.487527 59.822472 -24.543500 37.608682 0.000000 0.000000 0.000000 -7.125000 0.000000 0.000000 12.561937 -25.829952 17.060529 0.000000 0.000000 0.000000 -49.684175 -41.175553 21.801587 -55.951098 -55.130741 -30.994888 -42.676153 57.944810 41.946686 0.000000 0.000000 0.000000 7.125000 0.000000 0.000000 -15.353702 80.383873 12.612546
9.682470 14.575956 -15.025727 1.825565 -3.952409 1.139543 0.000000 0.000000 0.000000 -15.936074 -6.084873 -24.727299 7.849058 16.007118 52.017071 2.427975 -12.492647 -28.141461 1.521910 -7.789828 -22.077560 0.000000 0.000000 0.000000 15.748895 5.914009 -23.230289 -8.116136 -16.203986 52.979729 -2.403752 -5.781240 -31.777645 -0.877497 5.971854 -16.702861 -0.004650 0.855649 11.808608 -0.633745 1.082204 -4.233498 -0.915296 0.487852 -11.233254 4.744097 1.403164 -5.694812 -8.449001 2.843989 18.132484 -3.303125 1.032367 6.610982 0.000000 0.000000 0.000000 54.309295 -39.358118 -19.393166 52.859058 -54.085450 28.473869 59.809896 -24.516500 37.620177 0.000000 0.000000 0.000000 -7.125000 0.000000 0.000000 12.550917 -25.832769 17.045339 0.000000 0.000000 0.000000 -49.681200 -41.183171 21.794916 -55.939130 -55.126955 -30.985085 -42.574170 57.841813 41.903482 0.000000 0.000000 0.000000 7.125000 0.000000 0.000000 -15.045636 80.305397 12.333329
